<mxfile host="app.diagrams.net" modified="2022-05-02T13:59:32.130Z" agent="5.0 (Windows)" etag="NbNS3gild0xSofnhpyHm" version="17.5.0" type="github">
  <diagram id="DjuPNVFT3o-H4Go0dRkL" name="Page-1">
    <mxGraphModel dx="1422" dy="724" grid="1" gridSize="10" guides="1" tooltips="1" connect="1" arrows="1" fold="1" page="1" pageScale="1" pageWidth="827" pageHeight="1169" math="0" shadow="0">
      <root>
        <mxCell id="0" />
        <mxCell id="1" parent="0" />
        <mxCell id="o5xTC9oFkGva9_HFKY-1-6" value="" style="swimlane;startSize=0;" vertex="1" parent="1">
          <mxGeometry x="10" y="90" width="710" height="425" as="geometry" />
        </mxCell>
        <mxCell id="o5xTC9oFkGva9_HFKY-1-10" value="conteneur docker" style="text;html=1;align=center;verticalAlign=middle;resizable=0;points=[];autosize=1;strokeColor=none;fillColor=none;" vertex="1" parent="o5xTC9oFkGva9_HFKY-1-6">
          <mxGeometry x="10" y="10" width="110" height="20" as="geometry" />
        </mxCell>
        <mxCell id="o5xTC9oFkGva9_HFKY-1-1" value="Base de données de gestion de session" style="shape=cylinder3;whiteSpace=wrap;html=1;boundedLbl=1;backgroundOutline=1;size=15;" vertex="1" parent="o5xTC9oFkGva9_HFKY-1-6">
          <mxGeometry x="550" y="290" width="120" height="110" as="geometry" />
        </mxCell>
        <mxCell id="o5xTC9oFkGva9_HFKY-1-4" value="Serveur de base de données" style="shape=note;whiteSpace=wrap;html=1;backgroundOutline=1;darkOpacity=0.05;" vertex="1" parent="o5xTC9oFkGva9_HFKY-1-6">
          <mxGeometry x="550" y="120" width="120" height="110" as="geometry" />
        </mxCell>
        <mxCell id="o5xTC9oFkGva9_HFKY-1-5" value="" style="endArrow=classic;html=1;rounded=0;entryX=0.5;entryY=0;entryDx=0;entryDy=0;entryPerimeter=0;exitX=0.5;exitY=1;exitDx=0;exitDy=0;exitPerimeter=0;" edge="1" parent="o5xTC9oFkGva9_HFKY-1-6" source="o5xTC9oFkGva9_HFKY-1-4" target="o5xTC9oFkGva9_HFKY-1-1">
          <mxGeometry width="50" height="50" relative="1" as="geometry">
            <mxPoint x="430" y="310" as="sourcePoint" />
            <mxPoint x="480" y="260" as="targetPoint" />
          </mxGeometry>
        </mxCell>
      </root>
    </mxGraphModel>
  </diagram>
</mxfile>
